<svg xmlns="http://www.w3.org/2000/svg" viewBox="0 0 120 120" fill="none">
  <!-- Outer circle -->
  <circle cx="60" cy="60" r="52" stroke="url(#grad1)" stroke-width="2.5" fill="none"/>
  
  <!-- Top eye -->
  <ellipse cx="60" cy="36" rx="18" ry="10" stroke="url(#grad1)" stroke-width="2" fill="none"/>
  <path d="M42 36 Q60 22 78 36" stroke="url(#grad1)" stroke-width="2" fill="none"/>
  <circle cx="60" cy="36" r="5" fill="url(#grad2)"/>
  <circle cx="60" cy="36" r="2.5" fill="#7dd3fc"/>

  <!-- Bottom-left eye -->
  <g transform="rotate(120 60 60)">
    <ellipse cx="60" cy="36" rx="18" ry="10" stroke="url(#grad1)" stroke-width="2" fill="none"/>
    <path d="M42 36 Q60 22 78 36" stroke="url(#grad1)" stroke-width="2" fill="none"/>
    <circle cx="60" cy="36" r="5" fill="url(#grad2)"/>
    <circle cx="60" cy="36" r="2.5" fill="#7dd3fc"/>
  </g>

  <!-- Bottom-right eye -->
  <g transform="rotate(240 60 60)">
    <ellipse cx="60" cy="36" rx="18" ry="10" stroke="url(#grad1)" stroke-width="2" fill="none"/>
    <path d="M42 36 Q60 22 78 36" stroke="url(#grad1)" stroke-width="2" fill="none"/>
    <circle cx="60" cy="36" r="5" fill="url(#grad2)"/>
    <circle cx="60" cy="36" r="2.5" fill="#7dd3fc"/>
  </g>

  <defs>
    <linearGradient id="grad1" x1="0" y1="0" x2="120" y2="120" gradientUnits="userSpaceOnUse">
      <stop offset="0%" stop-color="#38bdf8"/>
      <stop offset="100%" stop-color="#3ecf8e"/>
    </linearGradient>
    <radialGradient id="grad2" cx="50%" cy="50%" r="50%">
      <stop offset="0%" stop-color="#7dd3fc"/>
      <stop offset="100%" stop-color="#2563eb"/>
    </radialGradient>
  </defs>
</svg>
